# xmcd CD database file
#
# Track frame offsets:
#	150
#	29690
#	46952
#	82987
#	111382
#	125410
#
# Disc length: 2072 seconds
#
# Revision: 1
# Processed by: cddbd v1.4PL0 Copyright (c) Steve Scherf et al.
# Submitted via: CDex 1.50
#
DISCID=4b081606
DTITLE=Kalman Olah, Peter Lehel - Hungarian Rhapsoy CD 1
DYEAR=2002
DGENRE=Jazz
TTITLE0=Egy Gyenge Kismadár
TTITLE1=Joska Csárdas
TTITLE2=Citrusfa
TTITLE3=One for Kodály
TTITLE4=Mysterious Travel
TTITLE5=Tale from the Yellow Rose
EXTD=YEAR: 2002
EXTT0=
EXTT1=
EXTT2=
EXTT3=
EXTT4=
EXTT5=
PLAYORDER=
